<?xml version="1.0" standalone="no"?>
<!DOCTYPE svg PUBLIC "-//W3C//DTD SVG 20010904//EN"
 "http://www.w3.org/TR/2001/REC-SVG-20010904/DTD/svg10.dtd">
<svg version="1.0" xmlns="http://www.w3.org/2000/svg"
 width="608.000000pt" height="663.000000pt" viewBox="0 0 608.000000 663.000000"
 preserveAspectRatio="xMidYMid meet">

<g transform="translate(0.000000,663.000000) scale(0.100000,-0.100000)"
fill="#000000" stroke="none">
<path d="M1405 6586 c-255 -105 -471 -244 -653 -420 -76 -73 -92 -101 -92
-160 0 -57 35 -101 92 -116 65 -18 94 -5 192 89 178 169 365 289 575 368 76
29 98 43 122 80 25 37 24 88 -2 130 -44 71 -111 80 -234 29z"/>
<path d="M2790 6244 c-19 -2 -80 -9 -135 -15 -308 -33 -652 -137 -939 -284
-922 -471 -1557 -1429 -1693 -2555 -21 -178 -24 -582 -5 -745 98 -836 492
-1541 1127 -2020 415 -312 873 -500 1435 -587 125 -19 185 -22 440 -22 253 0
314 3 430 21 553 87 1008 284 1424 617 127 101 348 322 447 446 433 543 692
1214 749 1944 33 417 -23 853 -157 1238 -145 419 -366 772 -678 1083 -156 156
-252 235 -445 363 -394 263 -837 425 -1360 497 -109 15 -558 29 -640 19z
m1353 -449 c109 -19 223 -60 346 -126 335 -178 550 -478 636 -890 22 -101 28
-162 32 -325 8 -284 -16 -494 -91 -799 -50 -205 -37 -186 -159 -224 -139 -42
-322 -77 -482 -92 -682 -61 -1359 265 -1683 811 -111 188 -190 432 -231 721
-33 232 -38 213 77 314 373 332 767 542 1137 609 107 19 312 20 418 1z m-1988
-1220 c171 -785 726 -1352 1525 -1561 327 -85 705 -96 1046 -29 65 12 120 22
122 20 4 -4 -97 -224 -174 -375 -189 -375 -449 -764 -727 -1092 -45 -53 -85
-97 -89 -97 -4 -1 -12 18 -18 42 -217 844 -914 1426 -1836 1533 -237 28 -535
11 -792 -45 -48 -11 -88 -18 -90 -16 -4 4 64 187 117 313 153 362 351 720 580
1047 114 162 303 403 307 390 2 -6 15 -64 29 -130z m-225 -1946 c308 -28 603
-131 856 -300 133 -90 327 -275 412 -395 82 -115 166 -281 212 -422 39 -119
90 -345 90 -399 0 -34 -20 -55 -166 -170 -526 -415 -1072 -583 -1504 -462 -93
26 -260 104 -351 165 -295 196 -485 523 -544 937 -17 119 -20 420 -5 552 14
121 50 336 61 356 10 20 178 70 344 104 207 42 393 53 595 34z"/>
</g>
</svg>
