<?xml version="1.0" encoding="UTF-8"?>
<svg version="1.1" xmlns="http://www.w3.org/2000/svg" width="608" height="662">
<path d="M0 0 C0.99257813 0.77988281 1.98515625 1.55976562 3.0078125 2.36328125 C18.68775733 14.93850766 33.69389972 29.08053135 46 45 C47.00471887 46.26471191 48.00996471 47.5290053 49.015625 48.79296875 C86.53663346 96.38676895 109.9150828 157.94674529 110.203125 218.84375 C110.21013931 219.8430101 110.21715363 220.8422702 110.22438049 221.87181091 C110.24179124 225.08125366 110.24823347 228.29051175 110.25 231.5 C110.25101212 233.14671188 110.25101212 233.14671188 110.25204468 234.82669067 C110.23584319 251.4156495 109.74782879 267.60498217 107 284 C106.75056641 285.55025879 106.75056641 285.55025879 106.49609375 287.13183594 C98.13617266 337.92609724 80.08512792 388.88082091 50 431 C49.21520264 432.10722412 49.21520264 432.10722412 48.41455078 433.23681641 C37.19810129 448.99163882 24.9920773 463.16454439 11.375 476.875 C10.65293869 477.60523376 10.65293869 477.60523376 9.91629028 478.35021973 C3.29443977 485.02782516 -3.6014446 491.18920994 -11 497 C-11.67885254 497.53818359 -12.35770508 498.07636719 -13.05712891 498.63085938 C-52.04281857 529.22644155 -98.21511943 548.83887231 -147 557 C-147.91281738 557.16371094 -148.82563477 557.32742188 -149.76611328 557.49609375 C-180.35274065 562.83757946 -214.44729284 562.19881313 -245 557 C-246.01545898 556.83902832 -247.03091797 556.67805664 -248.07714844 556.51220703 C-296.62267817 548.71586386 -345.38926986 529.84113621 -384 499 C-384.80824219 498.3709375 -385.61648438 497.741875 -386.44921875 497.09375 C-388.99376189 495.09417343 -391.50165781 493.05702919 -394 491 C-394.51256348 490.57912109 -395.02512695 490.15824219 -395.55322266 489.72460938 C-407.96412597 479.47929326 -419.87502614 468.4807649 -429.81079102 455.77441406 C-431.92104836 453.10005648 -434.0897371 450.48560053 -436.2734375 447.87109375 C-474.98259519 400.58807554 -497.92038608 336.04889671 -498.203125 274.9375 C-498.21018463 273.91622513 -498.21724426 272.89495026 -498.22451782 271.84272766 C-498.45239546 229.18205151 -498.45239546 229.18205151 -495 209 C-494.79600586 207.77941895 -494.59201172 206.55883789 -494.38183594 205.30126953 C-480.42817311 123.72210393 -439.62999012 44.9786805 -372.78710938 -5.64550781 C-371.60230859 -6.54349617 -370.42125483 -7.44645136 -369.24414062 -8.35449219 C-358.69614518 -16.48499478 -347.55071502 -23.38720979 -336 -30 C-335.30213379 -30.40460449 -334.60426758 -30.80920898 -333.88525391 -31.22607422 C-303.79658256 -48.53241082 -270.15995887 -58.01567392 -236 -63 C-235.11957031 -63.13132324 -234.23914063 -63.26264648 -233.33203125 -63.39794922 C-152.64114703 -74.83129589 -63.62531882 -50.37765766 0 0 Z M-134 -17 C-134.77472656 -16.80132324 -135.54945313 -16.60264648 -136.34765625 -16.39794922 C-173.99999801 -6.44036676 -208.09076635 14.46171111 -236.94921875 40.34765625 C-238.88631486 42.07879498 -240.73794808 43.50889537 -242.89453125 44.99609375 C-245.49471524 46.85336803 -247.26330694 48.31601981 -249 51 C-249.67790801 55.33171728 -249.13483637 59.28434477 -248.40185547 63.58691406 C-247.95713198 66.25741649 -247.60423174 68.93271133 -247.25390625 71.6171875 C-240.70972891 119.22961141 -221.86766565 160.92010138 -183.41015625 190.828125 C-159.49582018 208.81880817 -131.48112279 220.25144961 -102 225 C-100.92371338 225.17354004 -100.92371338 225.17354004 -99.82568359 225.35058594 C-72.71879927 229.48501455 -45.59516715 226.69845523 -19.02539062 220.67236328 C-17.06095642 220.23578712 -15.09083612 219.82379948 -13.11523438 219.44091797 C-2.67799011 217.59975398 -2.67799011 217.59975398 5.06640625 211.04296875 C6.25013139 207.55858659 6.98144024 204.32497588 7.54443359 200.703125 C8.06745748 197.59973784 8.76720089 194.56337276 9.48828125 191.5 C21.59467294 139.40341616 24.31726159 82.63471664 -3.93359375 35.14453125 C-7.25317525 30.09299418 -11.02316576 25.54192614 -15 21 C-15.61230469 20.24332031 -16.22460938 19.48664063 -16.85546875 18.70703125 C-34.50952932 -2.56065366 -63.6968926 -17.18911043 -91 -20 C-105.48031449 -20.95158917 -119.90710744 -20.62416576 -134 -17 Z M-287 91 C-288.6894718 92.94181549 -290.25748166 94.89122169 -291.8125 96.9375 C-292.54110229 97.88314819 -292.54110229 97.88314819 -293.28442383 98.84790039 C-294.32793269 100.20391454 -295.36877562 101.56198355 -296.40722656 102.921875 C-297.94387469 104.92677213 -299.49661086 106.91798051 -301.0546875 108.90625 C-314.99105854 126.77620343 -327.66457365 145.38054661 -339 165 C-339.98278405 166.67855458 -340.96586006 168.35693825 -341.94921875 170.03515625 C-357.68496082 197.05084314 -371.41725804 225.03907746 -382.4375 254.3125 C-382.8703833 255.44921143 -382.8703833 255.44921143 -383.31201172 256.60888672 C-384.8501788 260.74325691 -384.8501788 260.74325691 -384 265 C-382.97567871 264.78851318 -382.97567871 264.78851318 -381.93066406 264.57275391 C-339.77193313 255.95034009 -298.7273654 255.28925922 -257 267 C-256.09975098 267.25233398 -255.19950195 267.50466797 -254.27197266 267.76464844 C-221.84238864 277.13011463 -192.20400104 294.58741044 -168 318 C-167.50016602 318.47405273 -167.00033203 318.94810547 -166.48535156 319.43652344 C-149.5678661 335.49579784 -136.73382818 354.85788364 -127 376 C-126.46761719 377.14855469 -125.93523437 378.29710937 -125.38671875 379.48046875 C-120.14750697 391.24500372 -115.99645431 403.47708244 -113 416 C-102.43725968 407.7845353 -94.37630867 396.48611811 -86.39257812 385.85205078 C-85.42380653 384.56363891 -84.4508315 383.27838134 -83.47460938 381.99560547 C-58.6670148 349.36626932 -38.49737285 314.07052428 -20.75 277.1875 C-20.29608887 276.24527588 -19.84217773 275.30305176 -19.37451172 274.33227539 C-17.2942932 269.95145241 -15.38690582 265.66154457 -14 261 C-21.33079345 261.60088471 -28.53411011 262.67247319 -35.7824707 263.89575195 C-93.43065428 273.39846433 -156.2969834 259.56876557 -203.92333984 225.62939453 C-212.46622858 219.3443808 -220.32897921 212.30938695 -228 205 C-229.16789062 203.91138672 -229.16789062 203.91138672 -230.359375 202.80078125 C-260.81199057 173.59002767 -278.20643896 132.01109205 -285 91 C-285.66 91 -286.32 91 -287 91 Z M-399 311 C-406.64649561 351.03705103 -410.54485506 391.45740428 -398 431 C-397.66959717 432.04293213 -397.66959717 432.04293213 -397.33251953 433.10693359 C-386.93845157 464.96848832 -364.64722057 489.29046687 -335.10180664 504.58642578 C-304.1781526 520.04051027 -270.08052839 518.66101446 -237.85546875 508.01318359 C-209.9092095 498.09723148 -185.04664505 482.4331722 -162 464 C-161.10643799 463.29496338 -161.10643799 463.29496338 -160.19482422 462.57568359 C-158.3676182 461.12748214 -156.55699646 459.66080893 -154.75 458.1875 C-154.18837158 457.74341797 -153.62674316 457.29933594 -153.0480957 456.84179688 C-149.65900096 454.02681107 -148.45401326 452.34862017 -148 448 C-148.29127397 445.03967138 -148.29127397 445.03967138 -148.96875 441.90625 C-149.2064209 440.72119873 -149.4440918 439.53614746 -149.68896484 438.31518555 C-150.09042725 436.4266687 -150.09042725 436.4266687 -150.5 434.5 C-150.7039035 433.53158676 -150.7039035 433.53158676 -150.91192627 432.54360962 C-157.23531744 402.72668601 -169.12506272 375.52691073 -190 353 C-190.47163574 352.48985352 -190.94327148 351.97970703 -191.42919922 351.45410156 C-222.04127361 318.75837429 -266.29945949 299.47242133 -310.87109375 297.08984375 C-312.41990234 297.04537109 -312.41990234 297.04537109 -314 297 C-315.87365234 296.94005859 -315.87365234 296.94005859 -317.78515625 296.87890625 C-345.72386414 296.28695613 -372.81399458 301.44527457 -399 311 Z " fill="#EE7927" transform="translate(498,102)"/>
<path d="M0 0 C3.87726314 2.01043274 6.89824862 4.12835271 9 8 C10.48566947 13.62432013 9.85712535 16.95241188 7 22 C2.52122789 26.41569082 -3.09670781 28.33426608 -8.8125 30.6875 C-31.91185148 40.48816001 -52.25010201 54.15476556 -69.44921875 72.57421875 C-71.84039406 74.77265449 -74.00741152 75.00072662 -77.1875 75.3125 C-82.85722052 74.84776881 -87.18869209 73.0377214 -91 68.75 C-92.78177245 63.85012577 -92.76549212 59.90848719 -90.859375 55.15625 C-88.61995269 51.35487767 -86.00858577 48.51553504 -82.875 45.4375 C-82.26172852 44.83252686 -81.64845703 44.22755371 -81.01660156 43.60424805 C-63.76882907 26.96443141 -25.42890342 -4.28524113 0 0 Z " fill="#EE7927" transform="translate(157,0)"/>
</svg>
